<mxfile host="app.diagrams.net" modified="2023-02-05T19:07:16.168Z" agent="5.0 (X11)" etag="6X53lXuHB2NHEH-fu5Qi" version="20.8.16" type="github">
  <diagram name="Page-1" id="L6RW1Ucdor-18qdTrV9w">
    <mxGraphModel dx="1810" dy="748" grid="0" gridSize="10" guides="1" tooltips="1" connect="1" arrows="1" fold="1" page="0" pageScale="1" pageWidth="850" pageHeight="1100" math="0" shadow="0">
      <root>
        <mxCell id="0" />
        <mxCell id="1" parent="0" />
        <mxCell id="Q_MiIkE4cjON7g1NegED-2" value="" style="verticalLabelPosition=bottom;verticalAlign=top;html=1;shape=mxgraph.basic.rect;fillColor2=none;strokeWidth=1;size=20;indent=5;" vertex="1" parent="1">
          <mxGeometry x="-470" y="-254" width="68" height="46" as="geometry" />
        </mxCell>
        <mxCell id="Q_MiIkE4cjON7g1NegED-3" value="0x00" style="text;html=1;strokeColor=none;fillColor=none;align=center;verticalAlign=middle;whiteSpace=wrap;rounded=0;" vertex="1" parent="1">
          <mxGeometry x="-466" y="-246" width="60" height="30" as="geometry" />
        </mxCell>
        <mxCell id="Q_MiIkE4cjON7g1NegED-4" value="" style="verticalLabelPosition=bottom;verticalAlign=top;html=1;shape=mxgraph.basic.rect;fillColor2=none;strokeWidth=1;size=20;indent=5;" vertex="1" parent="1">
          <mxGeometry x="-393" y="-254" width="68" height="46" as="geometry" />
        </mxCell>
        <mxCell id="Q_MiIkE4cjON7g1NegED-5" value="0x01" style="text;html=1;strokeColor=none;fillColor=none;align=center;verticalAlign=middle;whiteSpace=wrap;rounded=0;" vertex="1" parent="1">
          <mxGeometry x="-389" y="-246" width="60" height="30" as="geometry" />
        </mxCell>
        <mxCell id="Q_MiIkE4cjON7g1NegED-6" value="" style="verticalLabelPosition=bottom;verticalAlign=top;html=1;shape=mxgraph.basic.rect;fillColor2=none;strokeWidth=1;size=20;indent=5;" vertex="1" parent="1">
          <mxGeometry x="-317" y="-254" width="68" height="46" as="geometry" />
        </mxCell>
        <mxCell id="Q_MiIkE4cjON7g1NegED-7" value="0x02" style="text;html=1;strokeColor=none;fillColor=none;align=center;verticalAlign=middle;whiteSpace=wrap;rounded=0;" vertex="1" parent="1">
          <mxGeometry x="-313" y="-246" width="60" height="30" as="geometry" />
        </mxCell>
        <mxCell id="Q_MiIkE4cjON7g1NegED-8" value="" style="verticalLabelPosition=bottom;verticalAlign=top;html=1;shape=mxgraph.basic.rect;fillColor2=none;strokeWidth=1;size=20;indent=5;" vertex="1" parent="1">
          <mxGeometry x="-470" y="-196" width="68" height="46" as="geometry" />
        </mxCell>
        <mxCell id="Q_MiIkE4cjON7g1NegED-9" value="0x03" style="text;html=1;strokeColor=none;fillColor=none;align=center;verticalAlign=middle;whiteSpace=wrap;rounded=0;" vertex="1" parent="1">
          <mxGeometry x="-466" y="-188" width="60" height="30" as="geometry" />
        </mxCell>
        <mxCell id="Q_MiIkE4cjON7g1NegED-10" value="" style="verticalLabelPosition=bottom;verticalAlign=top;html=1;shape=mxgraph.basic.rect;fillColor2=none;strokeWidth=1;size=20;indent=5;" vertex="1" parent="1">
          <mxGeometry x="-393" y="-196" width="68" height="46" as="geometry" />
        </mxCell>
        <mxCell id="Q_MiIkE4cjON7g1NegED-11" value="0x04" style="text;html=1;strokeColor=none;fillColor=none;align=center;verticalAlign=middle;whiteSpace=wrap;rounded=0;" vertex="1" parent="1">
          <mxGeometry x="-389" y="-188" width="60" height="30" as="geometry" />
        </mxCell>
        <mxCell id="Q_MiIkE4cjON7g1NegED-12" value="" style="verticalLabelPosition=bottom;verticalAlign=top;html=1;shape=mxgraph.basic.rect;fillColor2=none;strokeWidth=1;size=20;indent=5;" vertex="1" parent="1">
          <mxGeometry x="-317" y="-196" width="68" height="46" as="geometry" />
        </mxCell>
        <mxCell id="Q_MiIkE4cjON7g1NegED-13" value="0x05" style="text;html=1;strokeColor=none;fillColor=none;align=center;verticalAlign=middle;whiteSpace=wrap;rounded=0;" vertex="1" parent="1">
          <mxGeometry x="-313" y="-188" width="60" height="30" as="geometry" />
        </mxCell>
        <mxCell id="Q_MiIkE4cjON7g1NegED-14" value="" style="verticalLabelPosition=bottom;verticalAlign=top;html=1;shape=mxgraph.basic.rect;fillColor2=none;strokeWidth=1;size=20;indent=5;" vertex="1" parent="1">
          <mxGeometry x="-470" y="-138" width="68" height="46" as="geometry" />
        </mxCell>
        <mxCell id="Q_MiIkE4cjON7g1NegED-15" value="0x06" style="text;html=1;strokeColor=none;fillColor=none;align=center;verticalAlign=middle;whiteSpace=wrap;rounded=0;" vertex="1" parent="1">
          <mxGeometry x="-465" y="-130" width="60" height="30" as="geometry" />
        </mxCell>
        <mxCell id="Q_MiIkE4cjON7g1NegED-16" value="" style="verticalLabelPosition=bottom;verticalAlign=top;html=1;shape=mxgraph.basic.rect;fillColor2=none;strokeWidth=1;size=20;indent=5;" vertex="1" parent="1">
          <mxGeometry x="-393" y="-138" width="68" height="46" as="geometry" />
        </mxCell>
        <mxCell id="Q_MiIkE4cjON7g1NegED-17" value="0x07" style="text;html=1;strokeColor=none;fillColor=none;align=center;verticalAlign=middle;whiteSpace=wrap;rounded=0;" vertex="1" parent="1">
          <mxGeometry x="-389" y="-130" width="60" height="30" as="geometry" />
        </mxCell>
        <mxCell id="Q_MiIkE4cjON7g1NegED-18" value="" style="verticalLabelPosition=bottom;verticalAlign=top;html=1;shape=mxgraph.basic.rect;fillColor2=none;strokeWidth=1;size=20;indent=5;" vertex="1" parent="1">
          <mxGeometry x="-317" y="-138" width="68" height="46" as="geometry" />
        </mxCell>
        <mxCell id="Q_MiIkE4cjON7g1NegED-19" value="0x08" style="text;html=1;strokeColor=none;fillColor=none;align=center;verticalAlign=middle;whiteSpace=wrap;rounded=0;" vertex="1" parent="1">
          <mxGeometry x="-313" y="-130" width="60" height="30" as="geometry" />
        </mxCell>
        <mxCell id="Q_MiIkE4cjON7g1NegED-20" value="" style="verticalLabelPosition=bottom;verticalAlign=top;html=1;shape=mxgraph.basic.rect;fillColor2=none;strokeWidth=1;size=20;indent=5;" vertex="1" parent="1">
          <mxGeometry x="-470" y="-73" width="68" height="46" as="geometry" />
        </mxCell>
        <mxCell id="Q_MiIkE4cjON7g1NegED-21" value="0x09" style="text;html=1;strokeColor=none;fillColor=none;align=center;verticalAlign=middle;whiteSpace=wrap;rounded=0;" vertex="1" parent="1">
          <mxGeometry x="-466" y="-65" width="60" height="30" as="geometry" />
        </mxCell>
        <mxCell id="Q_MiIkE4cjON7g1NegED-22" value="" style="verticalLabelPosition=bottom;verticalAlign=top;html=1;shape=mxgraph.basic.rect;fillColor2=none;strokeWidth=1;size=20;indent=5;" vertex="1" parent="1">
          <mxGeometry x="-393" y="-73" width="68" height="46" as="geometry" />
        </mxCell>
        <mxCell id="Q_MiIkE4cjON7g1NegED-23" value="0x10" style="text;html=1;strokeColor=none;fillColor=none;align=center;verticalAlign=middle;whiteSpace=wrap;rounded=0;" vertex="1" parent="1">
          <mxGeometry x="-389" y="-65" width="60" height="30" as="geometry" />
        </mxCell>
        <mxCell id="Q_MiIkE4cjON7g1NegED-24" value="" style="verticalLabelPosition=bottom;verticalAlign=top;html=1;shape=mxgraph.basic.rect;fillColor2=none;strokeWidth=1;size=20;indent=5;" vertex="1" parent="1">
          <mxGeometry x="-317" y="-73" width="68" height="46" as="geometry" />
        </mxCell>
        <mxCell id="Q_MiIkE4cjON7g1NegED-25" value="0x11" style="text;html=1;strokeColor=none;fillColor=none;align=center;verticalAlign=middle;whiteSpace=wrap;rounded=0;" vertex="1" parent="1">
          <mxGeometry x="-313" y="-65" width="60" height="30" as="geometry" />
        </mxCell>
      </root>
    </mxGraphModel>
  </diagram>
</mxfile>
